<?xml version="1.0" encoding="UTF-8"?>
<svg width="37px" height="31px" viewBox="0 0 37 31" version="1.1" xmlns="http://www.w3.org/2000/svg" xmlns:xlink="http://www.w3.org/1999/xlink">
    <!-- Generator: Sketch 42 (36781) - http://www.bohemiancoding.com/sketch -->
    <title>github</title>
    <desc>Created with Sketch.</desc>
    <defs></defs>
    <g id="Page-1" stroke="none" stroke-width="1" fill="none" fill-rule="evenodd">
        <g id="Artboard-Copy-7" transform="translate(-182.000000, -2270.000000)" fill-rule="nonzero" fill="#FFFFFF">
            <g id="Group-7" transform="translate(0.000000, 1836.000000)">
                <g id="github" transform="translate(132.000000, 408.000000)">
                    <g id="Group-4" transform="translate(50.000000, 26.000000)">
                        <path d="M25,18 C23.1192308,18 22,19.5691667 22,21 C22,23.4308333 23.1192308,25 25,25 C25.8807692,25 27,23.4308333 27,21 C26.9980769,19.5691667 25.8807692,18 25,18 Z M34,9 C34.2953804,8.0699359 34.3074457,3.94852564 33,0 C32.7188587,0 29.0771739,0.395448718 24,4 C22.4111413,3.81538462 20.4545652,3.66038462 19,4 C16.5454348,3.66038462 14.5908696,3.81538462 13,4 C7.92282609,0.395448718 4.2811413,0 4,0 C2.69456522,3.94852564 2.71065217,8.0699359 3,9 C1.14016304,10.7983333 0,13.2048077 0,16 C0,30.7675 11.9908152,30.9960256 15,31 C15.7028804,30.9960256 17.0622283,31 19,31 C19.9397826,31 21.3011413,30.9960256 22,31 C25.0132065,30.9960256 37,30.7675 37,16 C37,13.2048077 35.8618478,10.7983333 34,9 Z M19,29 L18,29 C10.8873386,29 5,28.1235934 5,21 C5,19.2521723 5.62119638,17.6633193 7,16 C9.55677601,14.1440295 13.7207956,15.3073665 18,15 C18.4639305,15.3073665 18.4839691,15.3073665 19,15 C18.5220425,15.3073665 18.5380733,15.3073665 19,15 C23.2792044,15.3073665 27.4452278,14.1440295 30,16 C31.3788036,17.6633193 32,19.2521723 32,21 C32,28.1235934 26.1146653,29 19,29 Z M11,18 C10.1188005,18 9,19.5691667 9,21 C9,23.4308333 10.1188005,25 11,25 C12.8811995,25 14,23.4308333 14,21 C14,19.5691667 12.8811995,18 11,18 Z" id="github"></path>
                    </g>
                </g>
            </g>
        </g>
    </g>
</svg>