<?xml version="1.0" encoding="UTF-8"?>
<svg width="36px" height="36px" viewBox="0 0 36 36" version="1.1" xmlns="http://www.w3.org/2000/svg" xmlns:xlink="http://www.w3.org/1999/xlink">
  <path d="M8,4 C8,6.2 6.6,8 4,8 C1.6,8 0,6.2 0,4.2 C0,2 1.6,0 4,0 C6.4,0 8,1.8 8,4 Z M0,36 L8,36 L8,10 L0,10 L0,36 Z M27.2,10.4 C23,10.4 20.6,12.8 19.6,14.4 L19.4,14.4 L19,11 L11.8,11 C11.8,13.2 12,15.8 12,18.8 L12,36 L20,36 L20,21.8 C20,21 20,20.4 20.2,19.8 C20.8,18.4 21.8,16.6 24,16.6 C26.8,16.6 28,19 28,22.2 L28,36 L36,36 L36,21.2 C36,13.8 32.2,10.4 27.2,10.4 Z" id="linkedin" fill="#000000"></path>
</svg>
