<?xml version="1.0" encoding="UTF-8"?>
<svg width="36px" height="36px" viewBox="0 0 36 36" version="1.1" xmlns="http://www.w3.org/2000/svg" xmlns:xlink="http://www.w3.org/1999/xlink">
    <!-- Generator: Sketch 42 (36781) - http://www.bohemiancoding.com/sketch -->
    <title>paper-plane</title>
    <desc>Created with Sketch.</desc>
    <defs></defs>
    <g id="Page-1" stroke="none" stroke-width="1" fill="none" fill-rule="evenodd">
        <g id="Artboard-Copy-5" transform="translate(-376.000000, -2155.000000)" fill-rule="nonzero" fill="#FFFFFF">
            <path d="M411.437814,2155.22098 C411.879532,2155.54241 412.060234,2155.97098 411.979922,2156.5067 L406.839933,2187.36384 C406.773006,2187.75223 406.55884,2188.05357 406.197434,2188.26786 C406.010039,2188.375 405.802566,2188.42857 405.575014,2188.42857 C405.427775,2188.42857 405.26715,2188.39509 405.09314,2188.32812 L395.997769,2184.61161 L391.138873,2190.53795 C390.897936,2190.84598 390.569994,2191 390.155047,2191 C389.981037,2191 389.833798,2190.97321 389.71333,2190.91964 C389.459007,2190.82589 389.25488,2190.66853 389.100948,2190.44754 C388.947016,2190.22656 388.87005,2189.98214 388.87005,2189.71429 L388.87005,2182.70312 L406.217513,2161.42857 L384.754044,2180.01116 L376.823201,2176.7567 C376.327942,2176.5692 376.060234,2176.20089 376.020078,2175.65179 C375.993307,2175.11607 376.207474,2174.72098 376.662577,2174.46652 L410.072504,2155.1808 C410.273285,2155.06027 410.487451,2155 410.715003,2155 C410.982711,2155 411.223648,2155.07366 411.437814,2155.22098 Z" id="paper-plane"></path>
        </g>
    </g>
</svg>