<?xml version="1.0" encoding="UTF-8"?>
<svg width="37px" height="30px" viewBox="0 0 37 30" version="1.1" xmlns="http://www.w3.org/2000/svg" xmlns:xlink="http://www.w3.org/1999/xlink">
  <path d="M33,7 C33.2276087,7.7929374 33.2336413,8.12199037 33,8 C33.2336413,18.459069 25.5983696,30 12,30 C7.34771739,30 3.36016304,28.7459872 0,27 C0.595217391,26.6653291 1.19847826,26.7014446 2,27 C5.36902174,26.7014446 8.64070652,25.4895666 11,23 C7.91679348,23.3988764 5.11163043,21.211878 4,18 C4.60891304,18.2885233 5.08548913,18.3346709 6,18 C6.26788043,18.3346709 6.93951087,18.244382 8,18 C4.10217391,17.3735955 1.48603261,14.3138042 1,11 C1.48603261,10.6099518 1.48603261,10.5798555 1,11 C2.50956522,11.1155698 3.68190217,11.4566613 5,11 C2.8876087,10.1364366 1.5463587,7.82102729 2,5 C1.5463587,3.80417335 1.92038043,2.50200642 3,1 C6.31815217,5.9670947 11.9144022,8.98073836 18,9 C18.0938043,8.74197432 18.0274457,8.16613162 18,8 C18.0274457,3.3888443 21.4238043,0 26,0 C27.8002717,0 29.7729348,0.916934189 31,2 C32.8857609,2.04855538 34.5105435,1.41853933 36,1 C35.411413,2.31942215 34.2069022,3.80417335 33,5 C34.1767391,4.55658106 35.6366304,4.15329053 37,4 C35.9825,5.07022472 34.6955435,6.40248796 33,7 Z" id="twitter" fill="#000000"></path>
</svg>
